# AST/ASF file generated using VICON BodyLanguage
# -----------------------------------------------
:version 1.10
:name VICON
:units
  mass 1.0
  length 0.45
  angle deg
:documentation
   .ast/.asf automatically generated from VICON data using
   VICON BodyBuilder and BodyLanguage model FoxedUp or BRILLIANT.MOD
:root
   order TX TY TZ RX RY RZ
   axis XYZ
   position 0 0 0  
   orientation 0 0 0 
:bonedata
  begin
     id 1 
     name lhipjoint
     direction 0.577973 -0.728611 0.367523 
     length 2.48544 
     axis 0 0 0  XYZ
  end
  begin
     id 2 
     name lfemur
     direction 0.34202 -0.939693 0  
     length 7.1921  
     axis 0 0 20  XYZ
    dof rx ry rz
    limits (-160.0 20.0)
           (-70.0 70.0)
           (-60.0 70.0)
  end
  begin
     id 3 
     name ltibia
     direction 0.34202 -0.939693 0   
     length 7.71059   
     axis 0 0 20   XYZ
    dof rx
    limits (-10.0 170.0)
  end
  begin
     id 4 
     name lfoot
     direction 0.089538 -0.246004 0.965124   
     length 2.19909   
     axis -90 7.62852e-016 20   XYZ
    dof rx rz
    limits (-45.0 90.0)
           (-70.0 20.0)
  end
  begin
     id 5 
     name ltoes
     direction 1.53544e-011 -4.21829e-011 1   
     length 1.10116   
     axis -90 7.62852e-016 20   XYZ
    dof rx
    limits (-90.0 20.0)
  end
  begin
     id 6 
     name rhipjoint
     direction -0.554414 -0.743062 0.374812   
     length 2.4371  
     axis 0 0 0  XYZ 
  end
  begin
     id 7 
     name rfemur
     direction -0.34202 -0.939693 0   
     length 7.47254   
     axis 0 0 -20   XYZ
    dof rx ry rz
    limits (-160.0 20.0)
           (-70.0 70.0)
           (-70.0 60.0)
  end
  begin
     id 8 
     name rtibia
     direction -0.34202 -0.939693 0   
     length 7.65855   
     axis 0 0 -20   XYZ
    dof rx
    limits (-10.0 170.0)
 end
 begin
     id 9 
     name rfoot
     direction -0.133779 -0.367555 0.92033   
     length 2.43006  
     axis -90 -7.62852e-016 -20   XYZ
    dof rx rz
    limits (-45.0 90.0)
           (-20.0 70.0)
  end
  begin
     id 10 
     name rtoes
     direction -1.53563e-011 -4.21889e-011 1   
     length 1.19625   
     axis -90 -7.62852e-016 -20   XYZ
    dof rx
    limits (-90.0 20.0)
  end
  begin
     id 11 
     name lowerback
     direction 0.0249066 0.998043 -0.0573585   
     length 2.08485   
     axis 0 0 0   XYZ
    dof rx ry rz
    limits (-20.0 45.0)
           (-30.0 30.0)
           (-30.0 30.0)
  end
  begin
     id 12 
     name upperback
     direction 0.0237884 0.999673 0.00943178   
     length 2.08515   
     axis 0 0 0   XYZ
    dof rx ry rz
    limits (-20.0 45.0)
           (-30.0 30.0)
           (-30.0 30.0)
  end
  begin
     id 13 
     name thorax
     direction 0.0106671 0.999301 0.0358174   
     length 2.09037   
     axis 0 0 0   XYZ
    dof rx ry rz
    limits (-20.0 45.0)
           (-30.0 30.0)
           (-30.0 30.0)
  end
  begin
     id 14 
     name lowerneck
     direction -0.0580016 0.987052 0.149546   
     length 1.84454   
     axis 0 0 0   XYZ
    dof rx ry rz
    limits (-20.0 45.0)
           (-30.0 30.0)
           (-30.0 30.0)
  end
  begin
     id 15 
     name upperneck
     direction 0.079456 0.981963 -0.171567   
     length 1.88141   
     axis 0 0 0   XYZ
    dof rx ry rz
    limits (-20.0 45.0)
           (-30.0 30.0)
           (-30.0 30.0)
  end
  begin
     id 16
     name head
     direction 0.0262167 0.9967 -0.0768276  
     length 1.89541  
     axis 0 0 0   XYZ
    dof rx ry rz
    limits (-20.0 45.0)
           (-30.0 30.0)
           (-30.0 30.0)
  end
  begin
     id 17 
     name lclavicle
     direction 0.946135 0.322134 -0.0325326  
     length 3.949  
     axis 0 0 0   XYZ
    dof ry rz
    limits (-20.0 10.0)
           (0.0 20.0)
  end
  begin
     id 18 
     name lhumerus
     direction 1 -4.48964e-011 1.94005e-028   
     length 5.10995   
     axis 180 -30 -90   XYZ
    dof rx ry rz
    limits (-60.0 90.0)
           (-90.0 90.0)
           (-90.0 90.0)
  end
  begin
     id 19
     name lradius
     direction 1 -4.48976e-011 2.87852e-027   
     length 3.21207   
     axis 180 -30 -90   XYZ
    dof rx
    limits (-10.0 170.0)
  end
  begin
     id 20
     name lwrist
     direction 1 -4.48963e-011 1.9975e-027   
     length 1.60604   
     axis 2.96054e-016 90 90   XYZ
    dof ry
    limits (-180.0 0.0)
 end
  begin
     id 21 
     name lhand
     direction 1 -4.48919e-011 4.00227e-027   
     length 0.63349   
     axis -2.5488e-015 90 90   XYZ
    dof rx rz
    limits (-90.0 90.0)
           (-45.0 45.0)
  end
  begin
     id 22 
     name lfingers
     direction 1 -4.49037e-011 7.9652e-027   
     length 0.510736   
     axis -5.0975e-015 90 90   XYZ
    dof rx
    limits (0.0 90.0)
  end
  begin
     id 23
     name lthumb
     direction 0.707107 -6.34922e-011 0.707107   
     length 0.733318   
     axis -90 45 -4.48553e-014   XYZ
    dof rx rz
    limits (-45.0 45.0)
           (-45.0 45.0)
  end
  begin
     id 24 
     name rclavicle
     direction -0.940085 0.328911 -0.0897654   
     length 3.93848  
     axis 0 0 0   XYZ 
    dof ry rz
    limits (-10.0 20.0)
           (-20.0 0.0)
  end
  begin
     id 25 
     name rhumerus
     direction -1 -4.48958e-011 3.02044e-027  
     length 5.25109   
     axis 180 30 90   XYZ
    dof rx ry rz
    limits (-90.0 60.0)
           (-90.0 90.0)
           (-90.0 90.0)
  end
  begin
     id 26 
     name rradius
     direction -1 -4.4897e-011 9.78352e-028   
     length 3.28364   
     axis 180 30 90   XYZ
    dof rx
    limits (-10.0 170.0)
  end
  begin
     id 27 
     name rwrist
     direction -1 -4.48943e-011 1.99918e-027   
     length 1.64182   
     axis 2.96054e-016 -90 -90   XYZ
    dof ry
    limits (-180.0 0.0)
  end
  begin
     id 28
     name rhand
     direction -1 -4.49024e-011 3.98478e-027   
     length 0.599745   
     axis -2.5488e-015 -90 -90   XYZ
    dof rx rz
    limits (-90.0 90.0)
           (-45.0 45.0)
  end
  begin
     id 29
     name rfingers
     direction -1 -4.48914e-011 8.00621e-027   
     length 0.48353   
     axis -5.0975e-015 -90 -90   XYZ
    dof rx
    limits (0.0 90.0)
  end
  begin
     id 30
     name rthumb
     direction -0.707107 -6.34992e-011 0.707107   
     length 0.694255   
     axis -90 -45 4.48553e-014   XYZ
    dof rx rz
    limits (-45.0 45.0)
           (-45.0 45.0)
  end
:hierarchy
  begin
    root lhipjoint rhipjoint lowerback
    lhipjoint lfemur
    lfemur ltibia
    ltibia lfoot
    lfoot ltoes
    rhipjoint rfemur
    rfemur rtibia
    rtibia rfoot
    rfoot rtoes
    lowerback upperback
    upperback thorax
    thorax lowerneck lclavicle rclavicle
    lowerneck upperneck
    upperneck head
    lclavicle lhumerus
    lhumerus lradius
    lradius lwrist
    lwrist lhand lthumb
    lhand lfingers
    rclavicle rhumerus
    rhumerus rradius
    rradius rwrist
    rwrist rhand rthumb
    rhand rfingers
  end

#!OML:ASF E:\CV Data\Top Level 1\Subject 1\Session 1\player.ASF
:FULLY-SPECIFIED
:DEGREES
1
root 8.76742 16.9633 -4.40685 40.888 -82.2581 -38.6894
lowerback 4.65457 1.66767 3.68421
upperback -0.924729 2.4976 2.67534
thorax -3.52847 1.17676 0.507552
lowerneck -17.8009 10.7402 -2.88827
upperneck 18.5791 14.925 2.82577
head 8.22892 7.12314 3.14761
rclavicle 3.99557e-014 2.22639e-014
rhumerus -45.8037 39.8667 -102.366
rradius 90.2543
rwrist -13.404
rhand -25.8821 16.507
rfingers 7.12502
rthumb 0.659601 -13.4717
lclavicle 3.99557e-014 2.22639e-014
lhumerus -43.5764 -35.2629 111.078
lradius 89.3767
lwrist 44.1705
lhand -12.895 35.3358
lfingers 7.12502
lthumb 13.1944 64.8982
rfemur -18.9836 4.19729 25.6444
rtibia 43.3654
rfoot -25.9203 -8.42777
rtoes 11.7749
lfemur -18.6521 4.86978 -13.1055
ltibia 43.4919
lfoot -19.9262 10.651
ltoes -0.699908
2
root 8.76847 16.962 -4.43068 41.4823 -82.2137 -39.3117
lowerback 4.71084 1.67737 3.73989
upperback -0.896623 2.51615 2.72447
thorax -3.53074 1.18486 0.524557
lowerneck -17.7502 10.7223 -2.89721
upperneck 18.5632 14.9021 2.81736
head 8.21563 7.11176 3.1396
rclavicle 2.17421e-014 4.37326e-015
rhumerus -45.7324 39.7003 -102.421
rradius 90.2188
rwrist -13.0878
rhand -26.2352 16.5283
rfingers 7.12502
rthumb 0.318559 -13.4513
lclavicle 2.17421e-014 4.37326e-015
lhumerus -43.5358 -35.495 111.183
lradius 89.3959
lwrist 43.8546
lhand -12.4223 35.2519
lfingers 7.12502
lthumb 13.6501 64.7843
rfemur -18.9496 4.21646 25.8394
rtibia 43.3125
rfoot -25.8699 -8.44169
rtoes 11.7234
lfemur -18.8652 5.00773 -12.9215
ltibia 43.8604
lfoot -19.7881 10.6553
ltoes -1.26813
3
root 8.7715 16.9616 -4.45838 42.0989 -82.1777 -39.9336
lowerback 4.79936 1.69045 3.78886
upperback -0.89107 2.54131 2.72881
thorax -3.57266 1.19558 0.497215
lowerneck -17.7563 10.7247 -2.83633
upperneck 18.5993 14.8878 2.82799
head 8.2332 7.10886 3.13539
rclavicle 1.2598e-014 7.95139e-016
rhumerus -45.6446 39.4981 -102.541
rradius 90.1666
rwrist -12.7115
rhand -26.5105 16.491
rfingers 7.12502
rthumb 0.0527028 -13.4887
lclavicle 1.2598e-014 7.95139e-016
lhumerus -43.4323 -35.712 111.229
lradius 89.3337
lwrist 43.6181
lhand -11.9733 35.2897
lfingers 7.12502
lthumb 14.0827 64.7926
rfemur -18.9359 4.30186 26.0475
rtibia 43.2529
rfoot -25.7983 -8.53361
rtoes 11.6816
lfemur -19.1457 5.20971 -12.708
ltibia 44.2801
lfoot -19.6851 10.4279
ltoes -1.11622
4
root 8.77726 16.963 -4.48065 42.2636 -82.0884 -40.0805
lowerback 4.87277 1.66392 3.833
upperback -0.884902 2.51294 2.76115
thorax -3.60785 1.17995 0.505986
lowerneck -17.7876 10.7414 -2.78846
upperneck 18.6666 14.8994 2.83323
head 8.26422 7.1154 3.13731
rclavicle 1.76918e-014 1.82882e-014
rhumerus -45.5459 39.4772 -102.656
rradius 90.0818
rwrist -12.5226
rhand -26.5716 16.4493
rfingers 7.12502
rthumb -0.00632758 -13.5304
lclavicle 1.76918e-014 1.82882e-014
lhumerus -43.3415 -35.9448 111.32
lradius 89.3586
lwrist 43.8001
lhand -12.3448 35.4063
lfingers 7.12502
lthumb 13.7247 64.9337
rfemur -18.9696 4.17858 26.2051
rtibia 43.2011
rfoot -25.7505 -8.45997
rtoes 11.8177
lfemur -19.4901 5.27745 -12.5179
ltibia 44.7019
lfoot -19.5764 10.1051
ltoes -0.20699
5
root 8.7815 16.9628 -4.50358 42.5458 -82.0341 -40.3612
lowerback 4.94675 1.65866 3.87308
upperback -0.872992 2.51233 2.77956
thorax -3.63644 1.17832 0.500631
lowerneck -17.7857 10.7421 -2.77454
upperneck 18.7067 14.8931 2.85266
head 8.27702 7.11408 3.1428
rclavicle -1.46604e-015 -1.47101e-014
rhumerus -45.4533 39.403 -102.767
rradius 90.0152
rwrist -12.3376
rhand -26.7327 16.4327
rfingers 7.12502
rthumb -0.161935 -13.547
lclavicle -1.46604e-015 -1.47101e-014
lhumerus -43.2556 -36.1815 111.407
lradius 89.3565
lwrist 43.8861
lhand -12.4815 35.4641
lfingers 7.12502
lthumb 13.593 65.0004
rfemur -18.9835 4.12204 26.3584
rtibia 43.1613
rfoot -25.6991 -8.42376
rtoes 11.8731
lfemur -19.8014 5.37977 -12.3461
ltibia 45.1356
lfoot -19.4629 9.88551
ltoes 0.255384
6
root 8.78584 16.9623 -4.52529 42.7353 -81.9904 -40.5528
lowerback 5.0221 1.65404 3.90294
upperback -0.858488 2.5119 2.7912
thorax -3.66322 1.17705 0.493953
lowerneck -17.7911 10.7452 -2.74537
upperneck 18.7595 14.8882 2.8643
head 8.29724 7.11302 3.14508
rclavicle 1.63003e-014 -1.59028e-015
rhumerus -45.3591 39.3605 -102.885
rradius 89.9474
rwrist -12.223
rhand -26.8796 16.4214
rfingers 7.12502
rthumb -0.303757 -13.5581
lclavicle 1.63003e-014 -1.59028e-015
lhumerus -43.1717 -36.4307 111.496
lradius 89.3634
lwrist 44.0793
lhand -12.8186 35.5408
lfingers 7.12502
lthumb 13.268 65.0985
rfemur -19.0011 4.04782 26.4872
rtibia 43.1368
rfoot -25.655 -8.36529
rtoes 11.9395
lfemur -20.115 5.45874 -12.1953
ltibia 45.5774
lfoot -19.3586 9.6709
ltoes 0.811811
7
root 8.79028 16.9611 -4.54579 42.8688 -81.9545 -40.6946
lowerback 5.10032 1.65042 3.92161
upperback -0.840715 2.51223 2.80297
thorax -3.68868 1.17645 0.493542
lowerneck -17.7953 10.7481 -2.711
upperneck 18.8179 14.8841 2.86569
head 8.32044 7.1113 3.14372
rclavicle 8.69683e-016 -2.78299e-015
rhumerus -45.2669 39.3489 -102.997
rradius 89.8831
rwrist -12.1652
rhand -27.0013 16.4112
rfingers 7.12502
rthumb -0.421385 -13.5681
lclavicle 8.69683e-016 -2.78299e-015
lhumerus -43.0903 -36.6814 111.59
lradius 89.3777
lwrist 44.3321
lhand -13.2982 35.6319
lfingers 7.12502
lthumb 12.8058 65.2192
rfemur -19.0217 3.96889 26.5997
rtibia 43.1312
rfoot -25.6192 -8.30006
rtoes 11.9972
lfemur -20.4233 5.51703 -12.0598
ltibia 46.0158
lfoot -19.2835 9.47127
ltoes 1.29362
8
root 8.79458 16.9593 -4.56521 42.9867 -81.929 -40.8304
lowerback 5.18283 1.64765 3.92838
upperback -0.818428 2.51308 2.81733
thorax -3.71247 1.17645 0.502323
lowerneck -17.7937 10.7515 -2.6897
upperneck 18.8696 14.8829 2.87108
head 8.3389 7.11082 3.14498
rclavicle -2.99668e-014 -2.34566e-014
rhumerus -45.1783 39.3642 -103.099
rradius 89.825
rwrist -12.1343
rhand -27.0999 16.3875
rfingers 7.12502
rthumb -0.516577 -13.5916
lclavicle -2.99668e-014 -2.34566e-014
lhumerus -43.0066 -36.9191 111.681
lradius 89.3901
lwrist 44.5793
lhand -13.8164 35.7306
lfingers 7.12502
lthumb 12.3061 65.3485
rfemur -19.0375 3.90059 26.7011
rtibia 43.1394
rfoot -25.5909 -8.23909
rtoes 12.0573
lfemur -20.7182 5.53467 -11.9333
ltibia 46.4487
lfoot -19.2801 9.28862
ltoes 1.66515
9
root 8.79891 16.9568 -4.58371 43.14 -81.9052 -41.0082
lowerback 5.26799 1.6487 3.93519
upperback -0.793783 2.51909 2.83265
thorax -3.73525 1.17904 0.511608
lowerneck -17.7966 10.7556 -2.65155
upperneck 18.9199 14.8785 2.87518
head 8.35922 7.10985 3.1434
rclavicle -4.52235e-015 -1.31198e-014
rhumerus -45.0876 39.378 -103.183
rradius 89.7744
rwrist -12.0989
rhand -27.138 16.3462
rfingers 7.12502
rthumb -0.553353 -13.6328
lclavicle -4.52235e-015 -1.31198e-014
lhumerus -42.9344 -37.1618 111.77
lradius 89.4027
lwrist 44.7685
lhand -14.3579 35.8302
lfingers 7.12502
lthumb 11.784 65.4787
rfemur -19.0501 3.85136 26.806
rtibia 43.1565
rfoot -25.5697 -8.19517
rtoes 12.1196
lfemur -21 5.51625 -11.8007
ltibia 46.8672
lfoot -19.3752 9.11222
ltoes 1.87018
10
root 8.80294 16.9539 -4.60095 43.3558 -81.884 -41.257
lowerback 5.35284 1.65218 3.94451
upperback -0.764887 2.52833 2.85349
thorax -3.75353 1.18326 0.52501
lowerneck -17.7903 10.7576 -2.63764
upperneck 18.9545 14.8738 2.8932
head 8.36951 7.10947 3.14807
rclavicle -8.44835e-016 6.75868e-015
rhumerus -44.9963 39.3916 -103.239
rradius 89.7363
rwrist -12.0473
rhand -27.0864 16.2822
rfingers 7.12502
rthumb -0.503491 -13.6969
lclavicle -8.44835e-016 6.75868e-015
lhumerus -42.8655 -37.3865 111.858
lradius 89.4033
lwrist 44.8372
lhand -14.8266 35.9219
lfingers 7.12502
lthumb 11.332 65.5958
rfemur -19.0531 3.81983 26.9164
rtibia 43.175
rfoot -25.5509 -8.17093
rtoes 12.1763
lfemur -21.2563 5.46292 -11.6613
ltibia 47.2577
lfoot -19.5874 8.9574
ltoes 1.80536
11
root 8.8062 16.9511 -4.61653 43.6798 -81.8667 -41.6207
lowerback 5.43028 1.66079 3.96678
upperback -0.732593 2.54461 2.87717
thorax -3.76355 1.19081 0.533824
lowerneck -17.7835 10.7587 -2.63015
upperneck 18.9878 14.8682 2.91836
head 8.37812 7.10908 3.15564
rclavicle -2.95195e-014 -2.10712e-014
rhumerus -44.9053 39.3905 -103.267
rradius 89.7138
rwrist -11.9754
rhand -26.903 16.2052
rfingers 7.12502
rthumb -0.326367 -13.7743
lclavicle -2.95195e-014 -2.10712e-014
lhumerus -42.8077 -37.5958 111.946
lradius 89.3911
lwrist 44.7642
lhand -15.2371 36.0061
lfingers 7.12502
lthumb 10.936 65.7013
rfemur -19.0423 3.80905 27.0346
rtibia 43.1877
rfoot -25.5326 -8.16402
rtoes 12.2238
lfemur -21.4753 5.35884 -11.5098
ltibia 47.5999
lfoot -19.9529 8.80347
ltoes 1.47966
